<?xml version="1.0" encoding="iso-8859-1"?>
<!-- Generator: Adobe Illustrator 19.0.0, SVG Export Plug-In . SVG Version: 6.00 Build 0)  -->
<svg version="1.1" id="Layer_1" xmlns="http://www.w3.org/2000/svg" xmlns:xlink="http://www.w3.org/1999/xlink" x="0px" y="0px"
	 viewBox="0 0 512.001 512.001" style="enable-background:new 0 0 512.001 512.001;" xml:space="preserve">
<g>
	<g>
		<g>
			<path d="M413.669,182.847c-9.66,0-19.093,1.381-28.183,4.111c-0.907-17.72-15.605-31.856-33.545-31.856H33.592
				C15.069,155.101,0,170.171,0,188.694v181.609c0,32.666,21.62,60.376,51.303,69.576v27.783c0,4.622,3.746,8.369,8.369,8.369
				h266.182c4.623,0,8.369-3.747,8.369-8.369v-27.781c28.141-8.719,49.018-34.082,51.115-64.529
				c9.136,2.761,18.622,4.155,28.332,4.155c54.22,0,98.331-44.11,98.331-98.33C512,226.957,467.888,182.847,413.669,182.847z
				 M317.484,459.292L317.484,459.292H68.04v-16.341c1.582,0.104,3.172,0.174,4.779,0.174h239.892c1.606,0,3.192-0.07,4.772-0.174
				V459.292z M368.793,370.303L368.793,370.303c0,30.925-25.159,56.085-56.082,56.085H72.82c-30.923,0-56.082-25.16-56.082-56.085
				V188.694c0-9.294,7.561-16.855,16.855-16.855H351.94c9.293,0,16.854,7.561,16.854,16.855V370.303z M385.531,240.312
				c8.243-5.681,18.093-8.779,28.138-8.779c27.375,0,49.646,22.27,49.646,49.645c0,27.374-22.271,49.644-49.646,49.644
				c-10.055,0-19.895-3.09-28.138-8.772V240.312z M413.669,362.77c-9.716,0-19.151-1.704-28.138-5.025v-16.478
				c8.757,4.103,18.37,6.291,28.138,6.291c36.604,0,66.383-29.778,66.383-66.381c0-36.604-29.781-66.382-66.383-66.382
				c-9.758,0-19.377,2.193-28.138,6.297v-16.481c8.985-3.32,18.418-5.027,28.138-5.027c44.991,0,81.593,36.603,81.593,81.593
				C495.262,326.167,458.66,362.77,413.669,362.77z"/>
			<path d="M276.001,98.965c-7.639,5.616-12.019,13.666-12.019,22.085s4.381,16.469,12.019,22.085
				c1.493,1.098,3.229,1.627,4.95,1.627c2.572,0,5.108-1.182,6.749-3.412c2.738-3.724,1.939-8.962-1.784-11.7
				c-3.352-2.464-5.196-5.518-5.196-8.6c0-3.082,1.844-6.136,5.198-8.601c7.633-5.615,12.012-13.663,12.013-22.081
				c0-8.418-4.379-16.468-12.014-22.086c-3.351-2.464-5.195-5.518-5.195-8.6c0-3.082,1.844-6.135,5.195-8.598
				c3.724-2.738,4.524-7.976,1.786-11.7c-2.736-3.724-7.977-4.522-11.7-1.786c-7.638,5.615-12.019,13.665-12.019,22.084
				s4.381,16.469,12.018,22.083c3.349,2.464,5.193,5.519,5.193,8.602C281.191,93.449,279.348,96.502,276.001,98.965z"/>
			<path d="M194.72,98.965c-7.637,5.616-12.018,13.666-12.018,22.084c0,8.419,4.381,16.468,12.018,22.085
				c1.493,1.098,3.23,1.627,4.952,1.627c2.571,0,5.108-1.182,6.749-3.411c2.738-3.724,1.939-8.961-1.784-11.7
				c-3.35-2.464-5.195-5.518-5.195-8.601c0-3.083,1.846-6.136,5.195-8.6c7.636-5.615,12.016-13.663,12.018-22.082
				c0-8.419-4.38-16.469-12.018-22.086c-3.351-2.464-5.195-5.518-5.195-8.6c0.001-3.082,1.846-6.136,5.195-8.599
				c3.724-2.738,4.522-7.976,1.784-11.7c-2.737-3.724-7.974-4.523-11.7-1.785c-7.637,5.615-12.015,13.665-12.018,22.082
				c0,8.419,4.381,16.469,12.018,22.085c3.35,2.464,5.195,5.519,5.195,8.601C199.915,93.448,198.07,96.502,194.72,98.965z"/>
			<path d="M113.571,98.965c-7.637,5.616-12.015,13.666-12.015,22.084c0,8.419,4.38,16.468,12.015,22.085
				c1.493,1.098,3.23,1.627,4.952,1.627c2.571,0,5.108-1.182,6.749-3.411c2.738-3.724,1.939-8.961-1.784-11.7
				c-3.35-2.464-5.194-5.518-5.194-8.601c0-3.083,1.844-6.136,5.195-8.601c7.633-5.615,12.012-13.663,12.012-22.081
				c0.001-8.418-4.377-16.468-12.013-22.086c-3.35-2.464-5.195-5.518-5.194-8.6c0-3.082,1.844-6.136,5.193-8.599
				c3.725-2.738,4.524-7.976,1.785-11.7c-2.738-3.724-7.976-4.523-11.698-1.785c-7.638,5.615-12.018,13.665-12.018,22.082
				c-0.001,8.419,4.38,16.469,12.014,22.084c3.349,2.464,5.193,5.519,5.192,8.602C118.763,93.449,116.919,96.502,113.571,98.965z"/>
		</g>
	</g>
</g>
<g>
</g>
<g>
</g>
<g>
</g>
<g>
</g>
<g>
</g>
<g>
</g>
<g>
</g>
<g>
</g>
<g>
</g>
<g>
</g>
<g>
</g>
<g>
</g>
<g>
</g>
<g>
</g>
<g>
</g>
</svg>
